<svg width="21" height="11" viewBox="0 0 21 11" fill="none" xmlns="http://www.w3.org/2000/svg">
<path d="M20.4375 2.8125C20.7188 2.8125 21 2.57812 21 2.25V0.75C21 0.46875 20.7188 0.1875 20.4375 0.1875H0.5625C0.234375 0.1875 0 0.46875 0 0.75V2.25C0 2.57812 0.234375 2.8125 0.5625 2.8125H20.4375ZM20.4375 10.3125C20.7188 10.3125 21 10.0781 21 9.75V8.25C21 7.96875 20.7188 7.6875 20.4375 7.6875H10.5625C10.2344 7.6875 10 7.96875 10 8.25V9.75C10 10.0781 10.2344 10.3125 10.5625 10.3125H20.4375Z" fill="#EBEBEB"/>
</svg>
