<svg version="1.1" id="Twitter" xmlns="http://www.w3.org/2000/svg" xmlns:xlink="http://www.w3.org/1999/xlink" x="0px" y="0px" viewBox="0 0 113.4 113.4" style="enable-background:new 0 0 113.4 113.4;" xml:space="preserve" fill="white">	
<path class="social-svg youtube" d="M94.5,49h-8.6c0.6,2.4,1,5,1,7.6c0,16.7-13.6,30.3-30.3,30.3c-16.7,0-30.3-13.6-30.3-30.3c0-2.6,0.4-5.2,1-7.6 h-8.6v41.7c0,2.1,1.7,3.8,3.8,3.8h68.2c2.1,0,3.8-1.7,3.8-3.8V49z M94.5,22.5c0-2.1-1.7-3.8-3.8-3.8H79.4c-2.1,0-3.8,1.7-3.8,3.8 v11.4c0,2.1,1.7,3.8,3.8,3.8h11.4c2.1,0,3.8-1.7,3.8-3.8V22.5z M56.6,37.7c-10.5,0-19,8.5-19,19c0,10.5,8.5,19,19,19 c10.5,0,19-8.5,19-19C75.6,46.1,67.1,37.7,56.6,37.7 M94.5,105.9H18.7c-6.3,0-11.4-5.1-11.4-11.4V18.7c0-6.3,5.1-11.4,11.4-11.4 h75.8c6.3,0,11.4,5.1,11.4,11.4v75.8C105.9,100.8,100.8,105.9,94.5,105.9"/></svg>